<svg height="512" viewBox="0 0 192 192" width="512" xmlns="http://www.w3.org/2000/svg" xmlns:xlink="http://www.w3.org/1999/xlink"><linearGradient id="New_Gradient_Swatch_1" gradientUnits="userSpaceOnUse" x1="29.983" x2="162.017" y1="152.107" y2="20.073"><stop offset="0" stop-color="#34cdfa"/><stop offset="1" stop-color="#e8d9f1"/></linearGradient><path d="m159.513 20.7c-12.674-6.523-33.775-9.87-63.513 9.61-29.737-19.483-50.84-16.136-63.513-9.61-20.039 10.308-32.487 36.1-32.487 67.3 0 68.812 89.458 102.133 93.266 103.519a8.011 8.011 0 0 0 5.468 0c3.808-1.386 93.266-34.707 93.266-103.519 0-31.2-12.448-56.992-32.487-67.3z" fill="url(#New_Gradient_Swatch_1)"/><g fill="#fff"><path d="m96 107a32.036 32.036 0 0 0 -32 32c0 5.873 1.613 10.188 4.932 13.192 5.2 4.71 12.15 4.016 18.868 3.348 2.663-.266 5.417-.54 8.2-.54s5.537.274 8.2.54c2.389.238 4.806.479 7.165.479 4.273 0 8.351-.792 11.7-3.827 3.319-3 4.932-7.319 4.932-13.192a32.036 32.036 0 0 0 -31.997-32z"/><path d="m40.674 79.692a4 4 0 0 0 -2.924 1.463c-1.3 1.593-12.606 15.854-7.639 25.789a20 20 0 0 0 35.778-17.888c-4.968-9.935-23.155-9.448-25.215-9.364z"/><path d="m97.635 56.349a4 4 0 0 0 -3.27 0c-1.879.842-18.365 8.544-18.365 19.651a20 20 0 0 0 40 0c0-11.107-16.486-18.809-18.365-19.651z"/><path d="m156.26 83.556a4 4 0 0 0 -2.72-1.813c-2.031-.343-20.02-3.079-26.181 6.163a20 20 0 0 0 33.282 22.188c6.159-9.242-3.284-24.794-4.381-26.538z"/></g></svg>